#Comment line ignore any data following # character 
#Hierarchical Translation and Rotation (.htr) file 
[Header]	
#Header keywords are followed by a single value 
FileType HTR		#Single word string
DataType HTRS		#Translation followed by rotation and scale data
FileVersion 1		#integer
NumSegments 84		#integer
NumFrames 2		#integer
DataFrameRate 30		#integer, data frame rate in this file
EulerRotationOrder ZYX
CalibrationUnits mm
RotationUnits Degrees
GlobalAxisofGravity Y
BoneLengthAxis Y
ScaleFactor 1.00
[SegmentNames&Hierarchy]
#CHILD	PARENT
MASTER GLOBAL
root MASTER
chest root
L_mid_tent01 root
R_mid_tent01 root
spine01 root
Bip01_Neck chest
L_humerus chest
R_humerus chest
weapon_bone chest
Bip01_Head Bip01_Neck
eye_left_bone Bip01_Head
eye_right_bone Bip01_Head
L_forearm L_humerus
L_front_hand L_forearm
L_weapon_bone L_forearm
L_front_hand01_01 L_front_hand
L_front_hand02_01 L_front_hand
L_front_hand03_01 L_front_hand
L_front_hand01_02 L_front_hand01_01
L_front_hand02_02 L_front_hand02_01
L_front_hand03_02 L_front_hand03_01
R_forearm R_humerus
R_front_hand R_forearm
R_weapon_bone R_forearm
R_front_hand01_01 R_front_hand
R_front_hand02_01 R_front_hand
R_front_hand03_01 R_front_hand
R_front_hand01_02 R_front_hand01_01
R_front_hand02_02 R_front_hand02_01
R_front_hand03_02 R_front_hand03_01
null_rope01_connect L_mid_tent01
Rope1_Seg01 null_rope01_connect
Rope1_Seg02 Rope1_Seg01
Rope1_Seg03 Rope1_Seg02
Rope1_Seg04 Rope1_Seg03
Rope1_Seg05 Rope1_Seg04
Rope1_Seg06 Rope1_Seg05
Rope1_Seg07 Rope1_Seg06
Rope1_Seg09 Rope1_Seg07
L_mid_hand01 Rope1_Seg09
L_mid_hand02 Rope1_Seg09
L_mid_hand03 Rope1_Seg09
null_rope02_connect R_mid_tent01
Rope2_Seg01 null_rope02_connect
Rope2_Seg02 Rope2_Seg01
Rope2_Seg03 Rope2_Seg02
Rope2_Seg04 Rope2_Seg03
Rope2_Seg05 Rope2_Seg04
Rope2_Seg06 Rope2_Seg05
Rope2_Seg07 Rope2_Seg06
Rope2_Seg09 Rope2_Seg07
R_mid_hand01 Rope2_Seg09
R_mid_hand02 Rope2_Seg09
R_mid_hand03 Rope2_Seg09
spine02 spine01
spine03 spine02
pelvis spine03
null_rope03_connect pelvis
null_rope04_connect pelvis
Rope3_Seg01 null_rope03_connect
Rope3_Seg02 Rope3_Seg01
Rope3_Seg03 Rope3_Seg02
Rope3_Seg04 Rope3_Seg03
Rope3_Seg05 Rope3_Seg04
Rope3_Seg06 Rope3_Seg05
Rope3_Seg07 Rope3_Seg06
Rope3_Seg08 Rope3_Seg07
Rope3_Seg09 Rope3_Seg08
R_rear_hand01 Rope3_Seg09
R_rear_hand02 Rope3_Seg09
R_rear_hand03 Rope3_Seg09
Rope4_Seg01 null_rope04_connect
Rope4_Seg02 Rope4_Seg01
Rope4_Seg03 Rope4_Seg02
Rope4_Seg04 Rope4_Seg03
Rope4_Seg05 Rope4_Seg04
Rope4_Seg06 Rope4_Seg05
Rope4_Seg07 Rope4_Seg06
Rope4_Seg08 Rope4_Seg07
Rope4_Seg09 Rope4_Seg08
L_rear_hand01 Rope4_Seg09
L_rear_hand02 Rope4_Seg09
L_rear_hand03 Rope4_Seg09
[BasePosition]
#SegmentName Tx, Ty, Tz, Rx, Ry, Rz, BoneLength
MASTER 0.000000 0.000000 0.000000 -90.000000 0.000000 0.000000 10.000000 
root 0.000000 0.000000 0.000000 0.000000 0.000000 0.000000 10.000000 
chest 0.000000 0.000000 0.000000 0.000000 0.000000 0.000000 10.000000 
L_mid_tent01 0.000000 0.000000 0.000000 0.000000 0.000000 0.000000 10.000000 
R_mid_tent01 0.000000 0.000000 0.000000 0.000000 0.000000 0.000000 10.000000 
spine01 0.000000 0.000000 0.000000 0.000000 0.000000 0.000000 10.000000 
Bip01_Neck 0.000000 0.000000 0.000000 0.000000 0.000000 0.000000 10.000000 
L_humerus 0.000000 0.000000 0.000000 0.000000 0.000000 0.000000 10.000000 
R_humerus 0.000000 0.000000 0.000000 0.000000 0.000000 0.000000 10.000000 
weapon_bone 0.000000 0.000000 0.000000 0.000000 0.000000 0.000000 10.000000 
Bip01_Head 0.000000 0.000000 0.000000 0.000000 0.000000 0.000000 10.000000 
eye_left_bone 0.000000 0.000000 0.000000 0.000000 0.000000 0.000000 10.000000 
eye_right_bone 0.000000 0.000000 0.000000 0.000000 0.000000 0.000000 10.000000 
L_forearm 0.000000 0.000000 0.000000 0.000000 0.000000 0.000000 10.000000 
L_front_hand 0.000000 0.000000 0.000000 0.000000 0.000000 0.000000 10.000000 
L_weapon_bone 0.000000 0.000000 0.000000 0.000000 0.000000 0.000000 10.000000 
L_front_hand01_01 0.000000 0.000000 0.000000 0.000000 0.000000 0.000000 10.000000 
L_front_hand02_01 0.000000 0.000000 0.000000 0.000000 0.000000 0.000000 10.000000 
L_front_hand03_01 0.000000 0.000000 0.000000 0.000000 0.000000 0.000000 10.000000 
L_front_hand01_02 0.000000 0.000000 0.000000 0.000000 0.000000 0.000000 10.000000 
L_front_hand02_02 0.000000 0.000000 0.000000 0.000000 0.000000 0.000000 10.000000 
L_front_hand03_02 0.000000 0.000000 0.000000 0.000000 0.000000 0.000000 10.000000 
R_forearm 0.000000 0.000000 0.000000 0.000000 0.000000 0.000000 10.000000 
R_front_hand 0.000000 0.000000 0.000000 0.000000 0.000000 0.000000 10.000000 
R_weapon_bone 0.000000 0.000000 0.000000 0.000000 0.000000 0.000000 10.000000 
R_front_hand01_01 0.000000 0.000000 0.000000 0.000000 0.000000 0.000000 10.000000 
R_front_hand02_01 0.000000 0.000000 0.000000 0.000000 0.000000 0.000000 10.000000 
R_front_hand03_01 0.000000 0.000000 0.000000 0.000000 0.000000 0.000000 10.000000 
R_front_hand01_02 0.000000 0.000000 0.000000 0.000000 0.000000 0.000000 10.000000 
R_front_hand02_02 0.000000 0.000000 0.000000 0.000000 0.000000 0.000000 10.000000 
R_front_hand03_02 0.000000 0.000000 0.000000 0.000000 0.000000 0.000000 10.000000 
null_rope01_connect 0.000000 0.000000 0.000000 0.000000 0.000000 0.000000 10.000000 
Rope1_Seg01 0.000000 0.000000 0.000000 0.000000 0.000000 0.000000 10.000000 
Rope1_Seg02 0.000000 0.000000 0.000000 0.000000 0.000000 0.000000 10.000000 
Rope1_Seg03 0.000000 0.000000 0.000000 0.000000 0.000000 0.000000 10.000000 
Rope1_Seg04 0.000000 0.000000 0.000000 0.000000 0.000000 0.000000 10.000000 
Rope1_Seg05 0.000000 0.000000 0.000000 0.000000 0.000000 0.000000 10.000000 
Rope1_Seg06 0.000000 0.000000 0.000000 0.000000 0.000000 0.000000 10.000000 
Rope1_Seg07 0.000000 0.000000 0.000000 0.000000 0.000000 0.000000 10.000000 
Rope1_Seg09 0.000000 0.000000 0.000000 0.000000 0.000000 0.000000 10.000000 
L_mid_hand01 0.000000 0.000000 0.000000 0.000000 0.000000 0.000000 10.000000 
L_mid_hand02 0.000000 0.000000 0.000000 0.000000 0.000000 0.000000 10.000000 
L_mid_hand03 0.000000 0.000000 0.000000 0.000000 0.000000 0.000000 10.000000 
null_rope02_connect 0.000000 0.000000 0.000000 0.000000 0.000000 0.000000 10.000000 
Rope2_Seg01 0.000000 0.000000 0.000000 0.000000 0.000000 0.000000 10.000000 
Rope2_Seg02 0.000000 0.000000 0.000000 0.000000 0.000000 0.000000 10.000000 
Rope2_Seg03 0.000000 0.000000 0.000000 0.000000 0.000000 0.000000 10.000000 
Rope2_Seg04 0.000000 0.000000 0.000000 0.000000 0.000000 0.000000 10.000000 
Rope2_Seg05 0.000000 0.000000 0.000000 0.000000 0.000000 0.000000 10.000000 
Rope2_Seg06 0.000000 0.000000 0.000000 0.000000 0.000000 0.000000 10.000000 
Rope2_Seg07 0.000000 0.000000 0.000000 0.000000 0.000000 0.000000 10.000000 
Rope2_Seg09 0.000000 0.000000 0.000000 0.000000 0.000000 0.000000 10.000000 
R_mid_hand01 0.000000 0.000000 0.000000 0.000000 0.000000 0.000000 10.000000 
R_mid_hand02 0.000000 0.000000 0.000000 0.000000 0.000000 0.000000 10.000000 
R_mid_hand03 0.000000 0.000000 0.000000 0.000000 0.000000 0.000000 10.000000 
spine02 0.000000 0.000000 0.000000 0.000000 0.000000 0.000000 10.000000 
spine03 0.000000 0.000000 0.000000 0.000000 0.000000 0.000000 10.000000 
pelvis 0.000000 0.000000 0.000000 0.000000 0.000000 0.000000 10.000000 
null_rope03_connect 0.000000 0.000000 0.000000 0.000000 0.000000 0.000000 10.000000 
null_rope04_connect 0.000000 0.000000 0.000000 0.000000 0.000000 0.000000 10.000000 
Rope3_Seg01 0.000000 0.000000 0.000000 0.000000 0.000000 0.000000 10.000000 
Rope3_Seg02 0.000000 0.000000 0.000000 0.000000 0.000000 0.000000 10.000000 
Rope3_Seg03 0.000000 0.000000 0.000000 0.000000 0.000000 0.000000 10.000000 
Rope3_Seg04 0.000000 0.000000 0.000000 0.000000 0.000000 0.000000 10.000000 
Rope3_Seg05 0.000000 0.000000 0.000000 0.000000 0.000000 0.000000 10.000000 
Rope3_Seg06 0.000000 0.000000 0.000000 0.000000 0.000000 0.000000 10.000000 
Rope3_Seg07 0.000000 0.000000 0.000000 0.000000 0.000000 0.000000 10.000000 
Rope3_Seg08 0.000000 0.000000 0.000000 0.000000 0.000000 0.000000 10.000000 
Rope3_Seg09 0.000000 0.000000 0.000000 0.000000 0.000000 0.000000 10.000000 
R_rear_hand01 0.000000 0.000000 0.000000 0.000000 0.000000 0.000000 10.000000 
R_rear_hand02 0.000000 0.000000 0.000000 0.000000 0.000000 0.000000 10.000000 
R_rear_hand03 0.000000 0.000000 0.000000 0.000000 0.000000 0.000000 10.000000 
Rope4_Seg01 0.000000 0.000000 0.000000 0.000000 0.000000 0.000000 10.000000 
Rope4_Seg02 0.000000 0.000000 0.000000 0.000000 0.000000 0.000000 10.000000 
Rope4_Seg03 0.000000 0.000000 0.000000 0.000000 0.000000 0.000000 10.000000 
Rope4_Seg04 0.000000 0.000000 0.000000 0.000000 0.000000 0.000000 10.000000 
Rope4_Seg05 0.000000 0.000000 0.000000 0.000000 0.000000 0.000000 10.000000 
Rope4_Seg06 0.000000 0.000000 0.000000 0.000000 0.000000 0.000000 10.000000 
Rope4_Seg07 0.000000 0.000000 0.000000 0.000000 0.000000 0.000000 10.000000 
Rope4_Seg08 0.000000 0.000000 0.000000 0.000000 0.000000 0.000000 10.000000 
Rope4_Seg09 0.000000 0.000000 0.000000 0.000000 0.000000 0.000000 10.000000 
L_rear_hand01 0.000000 0.000000 0.000000 0.000000 0.000000 0.000000 10.000000 
L_rear_hand02 0.000000 0.000000 0.000000 0.000000 0.000000 0.000000 10.000000 
L_rear_hand03 0.000000 0.000000 0.000000 0.000000 0.000000 0.000000 10.000000 
#Beginning of Data. Separated by tabs
#Fr	Tx	Ty	Tz	Rx	Ry	Rz	SF
[MASTER]
79 170.096359 17410.953125 -75.029648 0.001660 0.001660 0.001660 17411.945313
80 169.653732 17663.453125 -58.086246 0.001660 0.001660 0.001660 17664.365234
[root]
79 29.374720 4.866865 1416.895752 -94.510536 -10.206906 -90.217743 1417.208618
80 13.967338 6.520933 1427.958740 -93.959305 -10.483137 -90.067520 1428.041870
[chest]
79 -84.512650 -34.090519 0.000000 -9.375385 -4.380657 177.815002 91.129311
80 -84.512650 -34.090519 0.000000 -8.933372 -3.855985 176.288361 91.129311
[L_mid_tent01]
79 27.299763 22.179546 -249.918686 -5.699052 27.813122 54.863804 252.381760
80 27.299768 22.179550 -249.918686 -4.452193 32.450405 60.259850 252.381775
[R_mid_tent01]
79 23.228794 24.509907 226.238495 177.827164 -25.552183 52.670143 228.744751
80 23.228794 24.509907 226.238495 175.881088 -28.500923 55.604221 228.744751
[spine01]
79 -0.361383 -0.195265 0.000000 -0.000001 -0.000007 22.052340 0.410763
80 -0.361383 -0.195265 0.000000 -0.000001 -0.000007 22.052340 0.410763
[Bip01_Neck]
79 165.484543 71.581718 0.000119 176.643677 -1.657967 43.431911 180.302734
80 165.484543 71.581718 0.000119 176.643677 -1.657967 43.431911 180.302734
[L_humerus]
79 -13.983130 -135.272980 -120.471481 22.246258 83.683167 113.021896 181.680161
80 -13.983130 -135.272980 -120.471481 9.494942 81.076630 100.124214 181.680161
[R_humerus]
79 -13.983309 -135.273102 125.287651 61.773277 -86.015427 33.510563 184.909012
80 -13.983309 -135.273102 125.287651 43.467377 -83.121338 51.898323 184.909012
[weapon_bone]
79 235.964890 -300.705902 0.000000 0.000000 -89.951546 -128.212341 382.234833
80 235.964890 -300.705902 0.000000 0.000000 -89.951546 -128.212341 382.234833
[Bip01_Head]
79 213.442795 185.715546 11.777089 20.603273 3.291433 -43.892044 283.172699
80 213.442719 185.715500 11.777063 18.242083 3.215800 -43.889538 283.172638
[eye_left_bone]
79 -24.626970 125.451866 -64.772606 0.000000 -90.000000 -99.840431 143.318359
80 -24.626970 125.451866 -64.772606 0.000000 -90.000000 -99.840431 143.318359
[eye_right_bone]
79 -24.626970 125.451866 64.327362 0.000000 -89.965736 80.156380 143.117676
80 -24.626970 125.451866 64.327362 0.000000 -89.965736 80.156380 143.117676
[L_forearm]
79 322.776093 0.000000 -0.000119 0.000397 -0.002313 -109.462379 322.776093
80 322.776093 0.000000 -0.000119 0.000397 -0.002313 -109.453896 322.776093
[L_front_hand]
79 241.149185 -0.042021 -3.300071 -178.667953 -1.835447 -27.422350 241.171753
80 241.149185 -0.042021 -3.300071 -178.667953 -1.835447 -27.422350 241.171753
[L_weapon_bone]
79 156.183838 0.000000 0.000000 0.000014 0.000007 0.000001 156.183838
80 156.183838 0.000000 0.000000 0.000014 0.000007 0.000001 156.183838
[L_front_hand01_01]
79 86.095154 20.947098 -0.655860 -0.366594 -0.477154 75.385574 88.609184
80 86.095154 20.947098 -0.655860 -0.366594 -0.477154 75.385574 88.609184
[L_front_hand02_01]
79 86.935165 -11.437475 24.513514 154.399796 -59.883835 -61.369587 91.046425
80 86.935165 -11.437475 24.513514 154.399796 -59.883835 -61.369587 91.046425
[L_front_hand03_01]
79 86.637497 -14.123976 -20.424902 -153.913849 58.118122 -62.702866 90.126129
80 86.637497 -14.123976 -20.424902 -153.913849 58.118122 -62.702866 90.126129
[L_front_hand01_02]
79 71.020905 -0.000179 0.000030 0.000334 -0.002323 -106.379684 71.020905
80 71.020905 -0.000179 0.000030 0.000334 -0.002323 -106.379684 71.020905
[L_front_hand02_02]
79 71.020927 -0.000119 0.000060 0.000334 -0.002323 -106.379684 71.020927
80 71.020927 -0.000119 0.000060 0.000334 -0.002323 -106.379684 71.020927
[L_front_hand03_02]
79 71.020905 -0.000060 0.000060 0.000334 -0.002323 -106.379684 71.020905
80 71.020905 -0.000060 0.000060 0.000334 -0.002323 -106.379684 71.020905
[R_forearm]
79 322.776428 -0.000060 0.000030 0.202078 0.065233 -108.105576 322.776428
80 322.776428 -0.000060 0.000030 0.202083 0.065218 -108.097031 322.776428
[R_front_hand]
79 238.847015 -0.006795 2.210259 -2.635298 -10.645461 -26.312506 238.857239
80 238.847015 -0.006795 2.210259 -2.635298 -10.645461 -26.312506 238.857239
[R_weapon_bone]
79 155.664093 0.002503 -0.000030 0.003487 0.001180 -90.988930 155.664078
80 155.664093 0.002503 -0.000030 0.003487 0.001180 -90.988930 155.664078
[R_front_hand01_01]
79 87.624611 14.231146 22.918642 -154.633499 -59.950619 61.746044 91.683487
80 87.624611 14.231146 22.918642 -154.633499 -59.950619 61.746044 91.683487
[R_front_hand02_01]
79 89.356956 14.367283 -19.491137 154.602661 58.302849 63.744389 92.579636
80 89.356956 14.367283 -19.491137 154.602661 58.302849 63.744389 92.579636
[R_front_hand03_01]
79 87.286232 -22.307278 -0.143439 0.162155 -0.423168 -75.767921 90.091743
80 87.286232 -22.307278 -0.143439 0.162155 -0.423168 -75.767906 90.091743
[R_front_hand01_02]
79 71.020905 0.000060 0.000119 0.002323 -0.000334 106.381714 71.020905
80 71.020905 0.000060 0.000119 0.002323 -0.000334 106.381714 71.020905
[R_front_hand02_02]
79 71.020844 -0.000030 -0.000119 0.002323 -0.000334 106.381714 71.020836
80 71.020844 -0.000030 -0.000119 0.002323 -0.000334 106.381714 71.020836
[R_front_hand03_02]
79 71.020905 0.000000 0.000030 0.002323 -0.000334 106.381714 71.020905
80 71.020905 0.000000 0.000030 0.002323 -0.000334 106.381714 71.020905
[null_rope01_connect]
79 328.732483 0.000000 -0.000238 -149.265106 -57.349636 -166.410751 328.732483
80 328.732483 0.000000 -0.000238 -149.965607 -53.533234 -170.699783 328.732483
[Rope1_Seg01]
79 0.000038 -0.001149 0.000153 145.130966 -28.437265 -98.817924 0.001160
80 0.000038 -0.001164 0.000153 142.205170 -27.908712 -96.656670 0.001174
[Rope1_Seg02]
79 139.999863 -0.000179 0.000000 -11.965106 -4.387100 -0.727751 139.999863
80 139.999863 -0.000179 0.000000 -9.541826 -4.009393 -0.537586 139.999863
[Rope1_Seg03]
79 139.999924 0.000060 -0.000060 -20.932146 -5.993320 -2.350518 139.999924
80 139.999924 0.000060 -0.000060 -16.782642 -5.570025 -1.728828 139.999924
[Rope1_Seg04]
79 139.999924 -0.000060 -0.000119 -48.530476 -13.725553 -6.910632 139.999924
80 139.999924 -0.000060 -0.000119 -37.964584 -11.011679 -4.762853 139.999924
[Rope1_Seg05]
79 139.999832 0.000119 -0.000060 -16.398941 1.758193 -17.178835 139.999832
80 139.999832 0.000119 -0.000060 -36.844662 -10.860276 -21.189013 139.999832
[Rope1_Seg06]
79 139.999954 0.000119 -0.000060 36.055355 14.787756 19.091114 139.999954
80 139.999954 0.000119 -0.000060 35.468372 14.221453 18.434071 139.999954
[Rope1_Seg07]
79 139.999985 0.000060 0.000000 8.363921 7.640287 2.106772 139.999985
80 139.999985 0.000060 0.000000 14.654689 10.888044 5.719250 139.999985
[Rope1_Seg09]
79 121.602913 0.000119 -0.000089 -89.793175 -1.359789 0.847147 121.602913
80 121.602913 0.000119 -0.000089 -89.793175 -1.359789 0.847147 121.602913
[L_mid_hand01]
79 103.859421 1.038730 8.195221 130.544373 -67.584534 -38.866943 104.187431
80 103.859421 1.038730 8.195221 130.544373 -67.584534 -38.866943 104.187431
[L_mid_hand02]
79 105.572853 -4.139662 -10.864139 -168.923172 43.409309 -73.498886 106.211075
80 105.572853 -4.139662 -10.864139 -168.923172 43.409309 -73.498886 106.211075
[L_mid_hand03]
79 104.641464 17.579376 -3.913581 -6.012627 17.808178 74.893677 106.179977
80 104.641464 17.579376 -3.913581 -6.012627 17.808178 74.893677 106.179977
[null_rope02_connect]
79 328.732849 0.000179 -0.000119 -120.423447 67.688591 12.213652 328.732849
80 328.732849 0.000179 -0.000119 -121.148994 64.057121 13.606858 328.732849
[Rope2_Seg01]
79 0.000060 -0.001140 0.000000 -77.820847 -36.234634 -86.747223 0.001142
80 0.000059 -0.001156 0.000000 -75.245041 -34.383667 -87.551041 0.001158
[Rope2_Seg02]
79 139.999741 -0.000060 -0.000119 8.515823 -0.587846 8.038569 139.999756
80 139.999741 -0.000060 -0.000119 8.148549 -0.579664 7.800585 139.999756
[Rope2_Seg03]
79 140.000107 0.000030 0.000000 12.919552 0.327615 10.290764 140.000107
80 140.000107 0.000030 0.000000 12.511813 0.318500 10.114679 140.000107
[Rope2_Seg04]
79 139.999802 0.000000 -0.000060 24.324350 -0.704377 16.799658 139.999802
80 139.999802 0.000000 -0.000060 25.080853 -0.871254 17.500072 139.999802
[Rope2_Seg05]
79 139.999985 -0.000060 0.000119 3.159713 10.928709 -1.793498 139.999985
80 139.999985 -0.000060 0.000119 2.635133 10.544022 -2.095212 139.999985
[Rope2_Seg06]
79 139.999893 -0.000030 -0.000119 -6.566665 7.197492 -11.108864 139.999893
80 139.999893 -0.000030 -0.000119 -7.585436 6.454122 -12.088181 139.999893
[Rope2_Seg07]
79 139.999893 0.000060 -0.000060 -0.789140 3.920847 -2.856285 139.999893
80 139.999893 0.000060 -0.000060 -1.019730 3.690246 -3.124337 139.999893
[Rope2_Seg09]
79 121.338966 0.000089 -0.000060 33.793236 -1.359788 -0.847141 121.338966
80 121.338966 0.000089 -0.000060 33.793236 -1.359788 -0.847141 121.338966
[R_mid_hand01]
79 104.680779 11.144459 -10.335981 -16.212055 45.237240 70.462852 105.778534
80 104.680779 11.144459 -10.335981 -16.212063 45.237247 70.462852 105.778534
[R_mid_hand02]
79 104.070427 2.443552 8.231699 49.067368 -67.749771 39.286453 104.424065
80 104.070427 2.443552 8.231699 49.067368 -67.749771 39.286453 104.424065
[R_mid_hand03]
79 106.028137 -11.221827 -5.996406 -177.101105 15.551026 -76.585571 106.788818
80 106.028137 -11.221827 -5.996406 -177.101105 15.551026 -76.585571 106.788818
[spine02]
79 129.756927 0.001550 0.000119 0.363713 -4.044442 -12.983671 129.756927
80 129.756927 0.001550 0.000119 0.361470 -4.044672 -12.954954 129.756927
[spine03]
79 78.613327 0.081778 -4.898844 1.899803 3.830224 16.523153 78.765854
80 78.613319 0.081780 -4.898842 1.898400 3.830632 16.505606 78.765854
[pelvis]
79 169.435242 0.051022 0.000000 0.016318 -0.190535 -8.795570 169.435257
80 169.435242 0.051022 0.000000 0.005522 -0.191173 -5.277401 169.435257
[null_rope03_connect]
79 -1.257226 -2.466202 137.391083 -163.497467 -86.550873 -113.077126 137.418976
80 -1.257226 -2.466202 137.391083 -164.913406 -87.144867 -114.910774 137.418976
[null_rope04_connect]
79 -1.259640 -2.480268 -137.844437 -163.497467 -86.550873 -113.077126 137.872513
80 -1.259640 -2.480268 -137.844437 -164.913406 -87.144867 -114.910774 137.872513
[Rope3_Seg01]
79 -0.000029 0.000000 -0.000143 5.761128 25.597647 -105.126030 0.000146
80 -0.000029 0.000000 -0.000145 6.684556 26.848455 -102.907463 0.000148
[Rope3_Seg02]
79 139.999924 -0.000119 0.000060 1.811847 -4.560549 9.400233 139.999924
80 139.999924 -0.000119 0.000060 1.264697 -3.376595 7.783622 139.999924
[Rope3_Seg03]
79 139.999924 -0.000119 0.000119 0.274417 -8.802660 18.297836 139.999924
80 139.999924 -0.000119 0.000119 0.480431 -5.690975 13.074375 139.999924
[Rope3_Seg04]
79 139.999924 0.000119 0.000000 -7.210178 -13.203688 28.758823 139.999924
80 139.999924 0.000119 0.000000 -3.950861 -10.020401 22.507565 139.999924
[Rope3_Seg05]
79 139.999924 -0.000238 0.000060 4.063759 13.649128 -2.073621 139.999924
80 139.999924 -0.000238 0.000060 1.985654 9.129457 -3.815223 139.999924
[Rope3_Seg06]
79 139.999893 -0.000119 -0.000060 5.543786 13.419658 -5.330858 139.999893
80 139.999893 -0.000119 -0.000060 2.475518 9.301600 -7.172266 139.999893
[Rope3_Seg07]
79 139.999771 0.000060 -0.000119 3.788588 7.604987 -2.260939 139.999771
80 139.999771 0.000060 -0.000119 1.609390 4.822848 -2.861595 139.999771
[Rope3_Seg08]
79 139.999985 -0.000060 0.000000 1.900963 2.794262 -1.040494 139.999985
80 139.999985 -0.000060 0.000000 1.145787 2.455993 -1.556868 139.999985
[Rope3_Seg09]
79 90.185997 -0.000179 -0.000060 89.793228 -1.359877 -0.847183 90.185997
80 90.185997 -0.000179 -0.000060 89.793228 -1.359877 -0.847183 90.185997
[R_rear_hand01]
79 103.366196 -6.073594 -10.757982 -177.714203 24.565960 -73.910950 104.101845
80 103.366196 -6.073594 -10.757982 -177.714203 24.565960 -73.910950 104.101845
[R_rear_hand02]
79 100.509819 12.039542 -7.992327 -12.874829 36.868488 72.167213 101.543350
80 100.509819 12.039542 -7.992327 -12.874829 36.868488 72.167213 101.543350
[R_rear_hand03]
79 101.539970 5.215704 5.435467 71.484581 -71.816628 21.513813 101.819031
80 101.539970 5.215704 5.435467 71.484581 -71.816628 21.513813 101.819031
[Rope4_Seg01]
79 -0.000008 -0.001149 -0.000153 -98.761124 1.926772 -108.247910 0.001160
80 -0.000009 -0.001164 -0.000153 -100.117828 8.654750 -113.552353 0.001174
[Rope4_Seg02]
79 139.999985 0.000060 0.000119 -0.036645 0.160317 0.901704 139.999985
80 139.999985 0.000060 0.000119 -0.399455 -1.833851 1.264435 139.999985
[Rope4_Seg03]
79 139.999924 0.000000 -0.000238 0.044477 -3.930600 -1.103495 139.999924
80 139.999924 0.000000 -0.000238 -0.345049 -4.479131 0.386312 139.999924
[Rope4_Seg04]
79 139.999985 0.000000 0.000119 0.040171 3.766924 3.427855 139.999985
80 139.999985 0.000000 0.000119 -0.250420 -5.879821 0.569280 139.999985
[Rope4_Seg05]
79 139.999802 -0.000060 -0.000119 1.820664 22.459160 13.752101 139.999802
80 139.999802 -0.000060 -0.000119 1.169631 17.485180 11.383594 139.999802
[Rope4_Seg06]
79 139.999924 0.000000 0.000060 -0.471576 7.973271 4.883380 139.999924
80 139.999924 0.000000 0.000060 -0.188688 9.221428 5.704727 139.999924
[Rope4_Seg07]
79 139.999802 0.000000 0.000000 -0.502661 4.348508 2.754441 139.999802
80 139.999802 0.000000 0.000000 -0.412490 4.113863 2.803054 139.999802
[Rope4_Seg08]
79 139.999924 0.000000 0.000119 -1.938637 2.442686 1.583145 139.999924
80 139.999924 0.000000 0.000119 -1.869783 2.348421 1.625710 139.999924
[Rope4_Seg09]
79 90.185791 0.000060 0.000060 -135.617828 2.228885 0.850567 90.185791
80 90.185791 0.000060 0.000060 -135.617828 2.228885 0.850567 90.185791
[L_rear_hand01]
79 101.696655 -8.392275 -7.654577 -12.874829 -36.868488 107.832764 102.329041
80 101.696655 -8.392275 -7.654577 -12.874829 -36.868488 107.832764 102.329041
[L_rear_hand02]
79 102.726799 -1.568258 5.773216 71.484581 71.816628 158.486160 102.900848
80 102.726799 -1.568258 5.773216 71.484581 71.816628 158.486160 102.900848
[L_rear_hand03]
79 104.552910 9.721220 -10.420293 -177.714203 -24.565960 -106.089035 105.519653
80 104.552910 9.721220 -10.420293 -177.714203 -24.565960 -106.089035 105.519653
